<svg id="Layer_1" enable-background="new 0 0 512 512" height="512" viewBox="0 0 512 512" width="512" xmlns="http://www.w3.org/2000/svg"><g id="XMLID_1088_"><g id="XMLID_186_"><g id="XMLID_187_"><g id="XMLID_188_"><g id="XMLID_189_"><g id="XMLID_191_"><g id="XMLID_192_"><g id="XMLID_1275_"><g id="XMLID_1339_"><g id="XMLID_1340_"><g id="XMLID_1342_"><g id="XMLID_1343_"><g id="XMLID_1344_"><g id="XMLID_1345_"><g id="XMLID_1346_"><circle id="XMLID_1347_" cx="256" cy="256" fill="#ffe767" r="256"/></g></g></g></g></g></g></g></g></g></g></g></g></g></g><path id="XMLID_2866_" d="m512 256c0-20.323-2.38-40.089-6.856-59.045l-100.884-100.884c-33.76 114.929-194.824 363.055-194.824 363.055l52.795 52.795c138.506-3.309 249.769-116.62 249.769-255.921z" fill="#ffc100"/><g id="XMLID_565_"><path id="XMLID_2281_" d="m404.26 96.071-161.539-6.691-201.515 201.515 168.23 168.23 201.515-201.515zm-67.878 67.879c-8.786-8.786-8.786-23.032 0-31.818s23.032-8.786 31.818 0 8.786 23.032 0 31.818c-8.787 8.786-23.032 8.786-31.818 0z" fill="#ff6378"/><path id="XMLID_399_" d="m404.263 96.068-36.063 36.062c8.789 8.789 8.789 23.031 0 31.82s-23.03 8.789-31.82 0l-211.056 211.058 84.117 84.117 201.512-201.511z" fill="#ed1c86"/><path id="XMLID_2605_" d="m40.358 326.017h237.914v30h-237.914z" fill="#57545c" transform="matrix(.707 .707 -.707 .707 287.797 -12.771)"/><path id="XMLID_2679_" d="m186.373 323.596h30v118.96h-30z" fill="#262628" transform="matrix(.707 -.707 .707 .707 -211.895 254.593)"/></g></g><g id="XMLID_982_"><g id="XMLID_1020_"><path id="XMLID_1021_" d="m167.59 238.635h176.076v15h-176.076z" fill="#fff" transform="matrix(.926 -.378 .378 .926 -74.126 115.022)"/></g><g id="XMLID_1015_"><path id="XMLID_1019_" d="m339.956 219.765-100.438 41.055 27.408-27.408 67.359-27.534z" fill="#fff5ca"/></g><g id="XMLID_992_"><path id="XMLID_993_" d="m231.993 208.818c-13.663-13.663-12.247-37.309 3.156-52.713 15.403-15.403 39.05-16.819 52.713-3.156s12.247 37.31-3.156 52.713c-15.403 15.404-39.05 16.819-52.713 3.156zm45.262-45.261c-7.814-7.814-21.945-6.398-31.499 3.156s-10.97 23.685-3.156 31.499 21.945 6.398 31.499-3.156c9.555-9.554 10.97-23.685 3.156-31.499z" fill="#fff"/></g><g id="XMLID_984_"><path id="XMLID_986_" d="m219.714 340.151c-13.663-13.663-12.247-37.31 3.156-52.713s39.05-16.819 52.713-3.156 12.247 37.31-3.156 52.713-39.05 16.819-52.713 3.156zm45.262-45.262c-7.814-7.815-21.945-6.398-31.499 3.156s-10.97 23.685-3.156 31.499 21.945 6.398 31.499-3.156 10.97-23.684 3.156-31.499z" fill="#fff5ca"/></g></g></svg>